<svg width="93" height="111" viewBox="0 0 93 111" fill="none" xmlns="http://www.w3.org/2000/svg">
<path d="M89.3536 0.146447C89.1583 -0.0488155 88.8417 -0.0488155 88.6464 0.146447L85.4645 3.32843C85.2692 3.52369 85.2692 3.84027 85.4645 4.03553C85.6597 4.2308 85.9763 4.2308 86.1716 4.03553L89 1.20711L91.8284 4.03553C92.0237 4.2308 92.3403 4.2308 92.5355 4.03553C92.7308 3.84027 92.7308 3.52369 92.5355 3.32843L89.3536 0.146447ZM88.6464 107.354C88.8417 107.549 89.1583 107.549 89.3536 107.354L92.5355 104.172C92.7308 103.976 92.7308 103.66 92.5355 103.464C92.3403 103.269 92.0237 103.269 91.8284 103.464L89 106.293L86.1716 103.464C85.9763 103.269 85.6597 103.269 85.4645 103.464C85.2692 103.66 85.2692 103.976 85.4645 104.172L88.6464 107.354ZM62.3536 107.354C62.5488 107.158 62.5488 106.842 62.3536 106.646L59.1716 103.464C58.9763 103.269 58.6597 103.269 58.4645 103.464C58.2692 103.66 58.2692 103.976 58.4645 104.172L61.2929 107L58.4645 109.828C58.2692 110.024 58.2692 110.34 58.4645 110.536C58.6597 110.731 58.9763 110.731 59.1716 110.536L62.3536 107.354ZM0.146447 106.646C-0.0488155 106.842 -0.0488155 107.158 0.146447 107.354L3.32843 110.536C3.52369 110.731 3.84027 110.731 4.03553 110.536C4.2308 110.34 4.2308 110.024 4.03553 109.828L1.20711 107L4.03553 104.172C4.2308 103.976 4.2308 103.66 4.03553 103.464C3.84027 103.269 3.52369 103.269 3.32843 103.464L0.146447 106.646ZM89 0.5H88.5V107H89H89.5V0.5H89ZM62 107V106.5H0.5V107V107.5H62V107Z" fill="black"/>
</svg>
