<svg width="37" height="37" viewBox="0 0 37 37" fill="none" xmlns="http://www.w3.org/2000/svg">
<path opacity="0.25" fill-rule="evenodd" clip-rule="evenodd" d="M18.25 35.75C27.915 35.75 35.75 27.915 35.75 18.25C35.75 8.58502 27.915 0.75 18.25 0.75C8.58502 0.75 0.75 8.58502 0.75 18.25C0.75 27.915 8.58502 35.75 18.25 35.75Z" stroke="white" stroke-width="1.5"/>
<path d="M19.8432 13.7708H21.4516C21.5995 13.7708 21.7196 13.6576 21.7196 13.5182V12.0026C21.7196 11.8632 21.5995 11.75 21.4516 11.75H19.8432C18.2177 11.75 16.8945 12.9963 16.8945 14.5286V16.2968H15.0181C14.8701 16.2968 14.75 16.4099 14.75 16.5494V18.0649C14.75 18.2044 14.8701 18.3175 15.0181 18.3175H16.8945V23.6221C16.8945 23.7615 17.0146 23.8747 17.1626 23.8747H18.7709C18.9189 23.8747 19.039 23.7615 19.039 23.6221V18.3175H20.9155C21.0307 18.3175 21.1331 18.2478 21.1701 18.1448L21.7062 16.6292C21.7336 16.5524 21.7196 16.4675 21.6692 16.4013C21.6183 16.3357 21.5379 16.2968 21.4516 16.2968H19.039V14.5286C19.039 14.1108 19.3998 13.7708 19.8432 13.7708Z" fill="white"/>
</svg>
