<svg width="219" height="80" viewBox="0 0 219 80" fill="none" xmlns="http://www.w3.org/2000/svg">
<g opacity="0.5" clip-path="url(#clip0_136_507)">
<path d="M108.628 36.5242H68.7831V29.2607H99.6174C97.3409 22.9059 93.1566 17.4096 87.6369 13.5238C82.1173 9.63798 75.5318 7.55243 68.7816 7.55243C62.0313 7.55243 55.4459 9.63798 49.9262 13.5238C44.4066 17.4096 40.2223 22.9059 37.9457 29.2607H30.2969C32.859 20.2865 38.477 12.49 46.179 7.21946C53.8811 1.94894 63.1829 -0.46413 72.4757 0.397587C81.7686 1.2593 90.4681 5.34162 97.0697 11.9385C103.671 18.5354 107.76 27.232 108.628 36.5242Z" fill="white"/>
<path d="M108.626 44.0898C108.397 46.5474 107.939 48.9781 107.258 51.3504C104.856 59.6996 99.8036 67.0409 92.8629 72.2664C85.9223 77.4918 77.4702 80.3178 68.7824 80.3178C60.0946 80.3178 51.6425 77.4918 44.7018 72.2664C37.7612 67.0409 32.7086 59.6996 30.3066 51.3504H37.9585C40.2385 57.6984 44.4228 63.1877 49.9398 67.0682C55.4568 70.9487 62.0373 73.0312 68.7824 73.0312C75.5274 73.0312 82.108 70.9487 87.6249 67.0682C93.1419 63.1877 97.3263 57.6984 99.6063 51.3504H68.7839V44.0898H108.626Z" fill="white"/>
<path d="M7.91215 41.5211C7.87513 41.9745 7.7631 42.4185 7.58063 42.8352C7.40748 43.2306 7.1566 43.5871 6.84292 43.8835C6.51229 44.1908 6.12188 44.4267 5.69604 44.5764C5.18929 44.7524 4.65542 44.8373 4.11908 44.8273C3.50476 44.8409 2.89439 44.7259 2.32708 44.4898C1.83141 44.2766 1.39184 43.9516 1.04281 43.5401C0.680351 43.103 0.41467 42.594 0.263295 42.0467C0.081295 41.4251 -0.00728241 40.7799 0.000467864 40.1323C-0.00522068 39.4714 0.0956274 38.8138 0.299135 38.185C0.472355 37.6438 0.752693 37.1431 1.12346 36.7126C1.47966 36.3074 1.92274 35.9878 2.41967 35.7777C2.96627 35.5541 3.55246 35.4434 4.14297 35.4522C4.64894 35.4417 5.15327 35.5133 5.63631 35.6642C6.0251 35.7972 6.38135 36.011 6.68164 36.2914C6.973 36.5639 7.20837 36.8905 7.37455 37.2531C7.55777 37.6545 7.68731 38.0783 7.75983 38.5135L5.91407 38.7495C5.85299 38.298 5.67025 37.8716 5.38543 37.516C5.22377 37.3547 5.02878 37.2308 4.81415 37.1529C4.59951 37.075 4.37043 37.045 4.14297 37.065C3.82519 37.0479 3.5084 37.1132 3.22324 37.2545C2.93807 37.3958 2.69421 37.6082 2.51524 37.8714C2.1449 38.407 1.95972 39.1656 1.95972 40.1472C1.95972 41.1288 2.15883 41.8904 2.55705 42.432C2.73613 42.6858 2.97516 42.8915 3.25289 43.0306C3.53062 43.1697 3.83844 43.238 4.14895 43.2295C4.3792 43.2485 4.61088 43.2189 4.82901 43.1428C5.04714 43.0666 5.24687 42.9456 5.41529 42.7874C5.7112 42.4281 5.88764 41.9854 5.92004 41.5211H7.91215Z" fill="white"/>
<path d="M11.553 35.6934H13.3271L16.6692 44.5996H14.689L13.9782 42.5418H10.8422L10.1314 44.5996H8.21094L11.553 35.6934ZM13.4764 41.0066L12.3893 37.8139L11.3171 41.0066H13.4764Z" fill="white"/>
<path d="M17.7051 35.6934H21.0352C22.3991 35.6934 23.4624 36.0627 24.225 36.8014C24.9876 37.5401 25.3679 38.6352 25.3659 40.0867C25.3784 40.7499 25.2701 41.4097 25.0463 42.0341C24.851 42.5671 24.5375 43.0491 24.1294 43.4438C23.7144 43.8363 23.2162 44.1303 22.6719 44.3039C22.043 44.5072 21.3855 44.6081 20.7246 44.6026H17.7051V35.6934ZM20.7604 43.0047C21.182 43.0155 21.6017 42.9456 21.9969 42.7986C22.3198 42.673 22.6055 42.4675 22.8272 42.2013C23.0451 41.934 23.2039 41.6235 23.2931 41.2904C23.4 40.9013 23.4513 40.4991 23.4455 40.0957C23.4491 39.6996 23.405 39.3045 23.314 38.919C23.2404 38.5938 23.0978 38.2883 22.8959 38.023C22.6965 37.7861 22.4422 37.6015 22.1552 37.4854C21.8004 37.3431 21.4203 37.275 21.0382 37.2853H19.5658V43.0017L20.7604 43.0047Z" fill="white"/>
<path d="M26.7363 40.0098H30.4697V41.7331H26.7363V40.0098Z" fill="white"/>
<path d="M39.7371 41.5211C39.701 41.9743 39.59 42.4184 39.4085 42.8352C39.2354 43.2306 38.9845 43.5871 38.6708 43.8835C38.3402 44.1908 37.9498 44.4267 37.5239 44.5765C37.0162 44.7526 36.4813 44.8376 35.944 44.8273C35.3346 44.8392 34.7295 44.7243 34.1669 44.4898C33.6708 44.2774 33.2311 43.9522 32.8827 43.5401C32.5202 43.103 32.2545 42.594 32.1031 42.0467C31.9211 41.4251 31.8326 40.7799 31.8403 40.1323C31.8346 39.4714 31.9355 38.8138 32.139 38.185C32.3122 37.6438 32.5925 37.1431 32.9633 36.7126C33.3189 36.3067 33.7621 35.987 34.2595 35.7777C34.8061 35.5541 35.3923 35.4434 35.9828 35.4522C36.4888 35.4417 36.9931 35.5133 37.4762 35.6642C37.8686 35.7916 38.2299 36.0002 38.5364 36.2765C38.8278 36.5489 39.0631 36.8756 39.2293 37.2382C39.4112 37.6401 39.5407 38.0637 39.6146 38.4986L37.7688 38.7345C37.7078 38.283 37.525 37.8566 37.2402 37.501C37.0785 37.3398 36.8836 37.2158 36.6689 37.1379C36.4543 37.06 36.2252 37.03 35.9978 37.05C35.68 37.033 35.3632 37.0983 35.078 37.2395C34.7929 37.3808 34.549 37.5933 34.37 37.8565C33.9917 38.406 33.8026 39.1696 33.8026 40.1472C33.8026 41.1249 34.0017 41.8865 34.3999 42.432C34.5788 42.686 34.8178 42.8918 35.0955 43.0309C35.3733 43.1701 35.6812 43.2383 35.9918 43.2295C36.222 43.2485 36.4537 43.2189 36.6718 43.1428C36.89 43.0666 37.0897 42.9456 37.2581 42.7874C37.554 42.4281 37.7305 41.9854 37.7629 41.5211H39.7371Z" fill="white"/>
<path d="M44.9906 44.8274C44.3776 44.8381 43.7686 44.7274 43.1986 44.5019C42.688 44.2963 42.2313 43.9765 41.8636 43.567C41.4852 43.1389 41.1985 42.6378 41.0213 42.0946C40.6335 40.8294 40.6335 39.4771 41.0213 38.2119C41.1993 37.6678 41.4881 37.1664 41.8695 36.7395C42.2412 36.3318 42.6994 36.0123 43.2105 35.8047C43.7738 35.5811 44.3756 35.4704 44.9816 35.4791C45.5945 35.4692 46.2034 35.5798 46.7736 35.8047C47.2821 36.011 47.7367 36.3307 48.1027 36.7395C48.4758 37.1689 48.7573 37.67 48.93 38.2119C49.1335 38.8408 49.2344 39.4983 49.2287 40.1592C49.2386 40.8191 49.1439 41.4764 48.9479 42.1065C48.7793 42.6491 48.4996 43.1505 48.1266 43.579C47.761 43.9882 47.3063 44.3081 46.7975 44.5138C46.2216 44.7358 45.6076 44.8424 44.9906 44.8274ZM44.9906 43.2295C45.3252 43.253 45.6604 43.1923 45.9656 43.053C46.2708 42.9137 46.5362 42.7003 46.7378 42.4321C47.1201 41.8965 47.3112 41.1349 47.3112 40.1473C47.3112 39.1597 47.1201 38.4011 46.7378 37.8715C46.5222 37.6187 46.2543 37.4158 45.9527 37.2767C45.651 37.1375 45.3228 37.0655 44.9906 37.0655C44.6584 37.0655 44.3302 37.1375 44.0285 37.2767C43.7269 37.4158 43.459 37.6187 43.2434 37.8715C42.8611 38.4071 42.67 39.1657 42.67 40.1473C42.67 41.1289 42.8611 41.8905 43.2434 42.4321C43.4438 42.6985 43.7074 42.9108 44.0103 43.0501C44.3132 43.1893 44.646 43.2509 44.9786 43.2295H44.9906Z" fill="white"/>
<path d="M50.7559 35.6934H52.4284L56.096 41.5323V35.6934H57.9059V44.5996H56.2454L52.5658 38.8114V44.5996H50.7559V35.6934Z" fill="white"/>
<path d="M61.0513 41.6942C61.051 41.9192 61.0979 42.1418 61.189 42.3476C61.28 42.5534 61.4132 42.7378 61.5799 42.8889C61.9844 43.1659 62.4708 43.2976 62.9598 43.2622C63.2079 43.2684 63.4556 43.2372 63.6945 43.1696C63.8716 43.1186 64.037 43.0334 64.1813 42.9188C64.3026 42.823 64.3955 42.696 64.4501 42.5514C64.5049 42.4043 64.5322 42.2484 64.5308 42.0915C64.527 41.8476 64.4334 41.6136 64.2679 41.4344C64.0046 41.1872 63.6682 41.0321 63.3092 40.9924L62.1474 40.7713C61.7401 40.6994 61.3402 40.5905 60.9527 40.4458C60.6303 40.3299 60.3325 40.1547 60.0747 39.9291C59.8353 39.7151 59.6492 39.4482 59.5311 39.1496C59.3981 38.7988 59.3342 38.4256 59.3429 38.0505C59.3357 37.6608 59.4238 37.2753 59.5998 36.9275C59.7687 36.6048 60.0125 36.3273 60.3106 36.1181C60.6405 35.8881 61.0101 35.721 61.4007 35.6253C61.8573 35.508 62.3271 35.4507 62.7985 35.4551C63.348 35.4396 63.8961 35.5163 64.4203 35.6821C64.8072 35.8065 65.1642 36.0099 65.4686 36.2794C65.7297 36.5153 65.934 36.8073 66.0659 37.1336C66.1938 37.4587 66.2791 37.7991 66.3198 38.1461L64.5606 38.3701C64.5163 37.965 64.3288 37.589 64.032 37.3098C63.6834 37.0663 63.2612 36.9512 62.8373 36.9843C62.5751 36.9783 62.3132 37.0054 62.0578 37.0649C61.8826 37.1069 61.7159 37.1786 61.565 37.2769C61.4514 37.3502 61.3604 37.4536 61.3022 37.5756C61.2525 37.6896 61.2271 37.8127 61.2275 37.937C61.2167 38.0744 61.2363 38.2125 61.2848 38.3416C61.3333 38.4706 61.4096 38.5874 61.5083 38.6837C61.7894 38.8909 62.118 39.0244 62.464 39.0719L63.6855 39.3079C64.6512 39.507 65.3581 39.8176 65.8061 40.2397C66.0416 40.4841 66.2234 40.7752 66.3396 41.0941C66.4559 41.413 66.5041 41.7528 66.4811 42.0915C66.4842 42.4621 66.4099 42.8293 66.263 43.1696C66.1144 43.5022 65.8917 43.7965 65.6119 44.0298C65.2956 44.2935 64.9287 44.4896 64.5338 44.6062C64.0395 44.7522 63.5258 44.8217 63.0105 44.8123C61.798 44.8123 60.8691 44.5515 60.224 44.0298C59.5789 43.5081 59.2314 42.7246 59.1816 41.6793L61.0513 41.6942Z" fill="white"/>
</g>
<defs>
<clipPath id="clip0_136_507">
<rect width="218.667" height="80" fill="white"/>
</clipPath>
</defs>
</svg>
