<svg width="277" height="102" viewBox="0 0 277 102" fill="none" xmlns="http://www.w3.org/2000/svg">
<g opacity="0.5" clip-path="url(#clip0_1_1595)">
<path d="M137.607 46.2674H87.132V37.0661H126.192C123.308 29.016 118.008 22.0535 111.015 17.1311C104.023 12.2087 95.6811 9.56679 87.1301 9.56679C78.5791 9.56679 70.2369 12.2087 63.2447 17.1311C56.2526 22.0535 50.9521 29.016 48.0682 37.0661H38.3789C41.6246 25.6979 48.7412 15.8215 58.4979 9.14501C68.2546 2.46848 80.0379 -0.588326 91.8098 0.50327C103.582 1.59486 114.602 6.76622 122.965 15.1229C131.327 23.4797 136.507 34.4962 137.607 46.2674Z" fill="#444444"/>
<path d="M137.603 55.8507C137.313 58.9638 136.733 62.043 135.87 65.0482C132.828 75.6247 126.427 84.9244 117.635 91.5438C108.843 98.1633 98.1359 101.743 87.1305 101.743C76.125 101.743 65.4182 98.1633 56.626 91.5438C47.8338 84.9244 41.4333 75.6247 38.3906 65.0482H48.0837C50.972 73.0896 56.2726 80.0432 63.2613 84.9589C70.25 89.8746 78.5861 92.5127 87.1305 92.5127C95.6749 92.5127 104.011 89.8746 111 84.9589C117.988 80.0432 123.289 73.0896 126.177 65.0482H87.1324V55.8507H137.603Z" fill="#444444"/>
<path d="M10.0229 52.597C9.97597 53.1713 9.83405 53.7339 9.6029 54.2617C9.38356 54.7625 9.06576 55.2141 8.6684 55.5897C8.24956 55.979 7.755 56.2778 7.21556 56.4675C6.57363 56.6903 5.89733 56.7979 5.21792 56.7853C4.43972 56.8024 3.66652 56.6568 2.94787 56.3577C2.31997 56.0877 1.76313 55.6759 1.321 55.1546C0.861848 54.6009 0.525291 53.9562 0.333534 53.2629C0.102982 52.4755 -0.00922513 51.6582 0.000592676 50.8377C-0.0066134 50.0005 0.121138 49.1675 0.378934 48.3709C0.598364 47.6854 0.953487 47.0511 1.42316 46.5057C1.87438 45.9924 2.43567 45.5876 3.06516 45.3215C3.75758 45.0382 4.50015 44.8979 5.24819 44.9091C5.88913 44.8958 6.528 44.9865 7.1399 45.1777C7.63241 45.3462 8.08369 45.617 8.46409 45.9723C8.83318 46.3173 9.13134 46.7312 9.34184 47.1905C9.57394 47.699 9.73804 48.2358 9.8299 48.7871L7.49175 49.086C7.41438 48.5141 7.18289 47.9739 6.82209 47.5235C6.61731 47.3192 6.3703 47.1622 6.09841 47.0635C5.82652 46.9648 5.53632 46.9268 5.24819 46.9522C4.84564 46.9306 4.44432 47.0132 4.08309 47.1922C3.72186 47.3712 3.41294 47.6403 3.18623 47.9737C2.71709 48.6522 2.48251 49.6132 2.48251 50.8566C2.48251 52.1001 2.73474 53.0649 3.2392 53.751C3.46604 54.0725 3.76884 54.333 4.12066 54.5092C4.47248 54.6854 4.86241 54.772 5.25576 54.7611C5.54744 54.7852 5.84092 54.7478 6.11724 54.6513C6.39356 54.5549 6.64657 54.4015 6.85992 54.2012C7.23476 53.746 7.45828 53.1852 7.49932 52.597H10.0229Z" fill="#444444"/>
<path d="M14.636 45.2156H16.8833L21.117 56.4977H18.6086L17.7081 53.8909H13.7355L12.8351 56.4977H10.4023L14.636 45.2156ZM17.0725 51.9463L15.6953 47.9018L14.3371 51.9463H17.0725Z" fill="#444444"/>
<path d="M22.4297 45.2156H26.6482C28.376 45.2156 29.7228 45.6835 30.6889 46.6192C31.6549 47.555 32.1367 48.9422 32.1341 50.781C32.15 51.621 32.0128 52.4569 31.7293 53.2478C31.4819 53.9231 31.0848 54.5336 30.5678 55.0335C30.0421 55.5308 29.411 55.9033 28.7215 56.1232C27.9248 56.3807 27.0919 56.5084 26.2547 56.5015H22.4297V45.2156ZM26.3001 54.4774C26.8341 54.491 27.3658 54.4024 27.8665 54.2163C28.2755 54.0572 28.6374 53.7968 28.9182 53.4596C29.1943 53.121 29.3955 52.7277 29.5085 52.3057C29.6439 51.8129 29.7088 51.3034 29.7014 50.7923C29.7061 50.2906 29.6502 49.7901 29.5349 49.3017C29.4416 48.8898 29.261 48.5027 29.0053 48.1666C28.7527 47.8666 28.4306 47.6328 28.067 47.4856C27.6176 47.3054 27.136 47.2191 26.652 47.2321H24.7868V54.4736L26.3001 54.4774Z" fill="#444444"/>
<path d="M33.8691 50.6826H38.5984V52.8656H33.8691V50.6826Z" fill="#444444"/>
<path d="M50.3379 52.597C50.2923 53.1711 50.1517 53.7337 49.9218 54.2617C49.7024 54.7625 49.3846 55.2141 48.9873 55.5897C48.5684 55.979 48.0739 56.2778 47.5344 56.4675C46.8913 56.6906 46.2137 56.7982 45.533 56.7853C44.7611 56.8003 43.9945 56.6547 43.2819 56.3577C42.6534 56.0886 42.0964 55.6767 41.655 55.1546C41.1958 54.6009 40.8593 53.9562 40.6675 53.2629C40.437 52.4755 40.3248 51.6582 40.3346 50.8377C40.3274 50.0005 40.4551 49.1675 40.7129 48.3709C40.9323 47.6854 41.2875 47.0511 41.7571 46.5057C42.2076 45.9915 42.7691 45.5866 43.3991 45.3215C44.0916 45.0382 44.8341 44.8979 45.5822 44.9091C46.2231 44.8958 46.862 44.9865 47.4739 45.1777C47.9711 45.3391 48.4287 45.6034 48.817 45.9533C49.1861 46.2984 49.4842 46.7123 49.6947 47.1716C49.9252 47.6807 50.0892 48.2173 50.1828 48.7682L47.8447 49.0671C47.7673 48.4951 47.5358 47.955 47.175 47.5045C46.9702 47.3003 46.7232 47.1433 46.4513 47.0446C46.1794 46.9459 45.8892 46.9079 45.6011 46.9332C45.1985 46.9116 44.7972 46.9943 44.436 47.1733C44.0748 47.3522 43.7658 47.6214 43.5391 47.9548C43.0599 48.6509 42.8203 49.6182 42.8203 50.8566C42.8203 52.0951 43.0725 53.0599 43.577 53.751C43.8036 54.0727 44.1063 54.3334 44.4582 54.5097C44.8101 54.6859 45.2001 54.7723 45.5935 54.7611C45.8852 54.7852 46.1787 54.7478 46.455 54.6513C46.7313 54.5549 46.9843 54.4015 47.1977 54.2012C47.5725 53.746 47.796 53.1852 47.8371 52.597H50.3379Z" fill="#444444"/>
<path d="M56.9943 56.7853C56.2178 56.7988 55.4463 56.6586 54.7242 56.3729C54.0774 56.1125 53.4989 55.7074 53.033 55.1887C52.5537 54.6463 52.1906 54.0115 51.9661 53.3234C51.4748 51.7207 51.4748 50.0077 51.9661 48.405C52.1915 47.7157 52.5574 47.0806 53.0406 46.5398C53.5114 46.0232 54.0918 45.6186 54.7393 45.3556C55.4529 45.0723 56.2152 44.9322 56.9829 44.9432C57.7593 44.9305 58.5306 45.0707 59.2529 45.3556C59.897 45.6169 60.4729 46.0219 60.9366 46.5398C61.4091 47.0837 61.7657 47.7184 61.9846 48.405C62.2424 49.2016 62.3701 50.0345 62.3629 50.8718C62.3755 51.7077 62.2555 52.5403 62.0073 53.3386C61.7937 54.0258 61.4394 54.661 60.9668 55.2038C60.5037 55.7222 59.9277 56.1274 59.2832 56.388C58.5536 56.6692 57.7759 56.8042 56.9943 56.7853ZM56.9943 54.7611C57.4182 54.7908 57.8428 54.7139 58.2294 54.5375C58.6159 54.361 58.9522 54.0907 59.2075 53.751C59.6918 53.0725 59.934 52.1077 59.934 50.8566C59.934 49.6056 59.6918 48.6446 59.2075 47.9737C58.9344 47.6536 58.5951 47.3965 58.213 47.2202C57.8309 47.044 57.4151 46.9527 56.9943 46.9527C56.5734 46.9527 56.1576 47.044 55.7755 47.2202C55.3934 47.3965 55.0541 47.6536 54.781 47.9737C54.2967 48.6522 54.0545 49.6132 54.0545 50.8566C54.0545 52.1001 54.2967 53.0649 54.781 53.751C55.0348 54.0884 55.3687 54.3574 55.7524 54.5338C56.1361 54.7101 56.5577 54.7882 56.9791 54.7611H56.9943Z" fill="#444444"/>
<path d="M64.2969 45.2156H66.4156L71.0616 52.6122V45.2156H73.3544V56.4977H71.2508L66.5896 49.1655V56.4977H64.2969V45.2156Z" fill="#444444"/>
<path d="M77.3372 52.8164C77.3368 53.1015 77.3962 53.3834 77.5116 53.6441C77.6269 53.9048 77.7956 54.1384 78.0068 54.3298C78.5191 54.6808 79.1354 54.8475 79.7548 54.8027C80.0691 54.8106 80.3829 54.771 80.6855 54.6854C80.9098 54.6208 81.1194 54.5129 81.3022 54.3676C81.4558 54.2463 81.5735 54.0854 81.6427 53.9023C81.7121 53.7159 81.7467 53.5184 81.7448 53.3196C81.74 53.0107 81.6215 52.7143 81.4119 52.4873C81.0783 52.1742 80.6522 51.9777 80.1974 51.9273L78.7257 51.6474C78.2097 51.5563 77.7032 51.4182 77.2123 51.235C76.8039 51.0882 76.4266 50.8662 76.1 50.5804C75.7968 50.3093 75.561 49.9712 75.4114 49.593C75.2429 49.1486 75.162 48.6758 75.1731 48.2007C75.1639 47.707 75.2756 47.2187 75.4984 46.7781C75.7124 46.3694 76.0212 46.0178 76.3989 45.7528C76.8168 45.4614 77.285 45.2498 77.7798 45.1285C78.3581 44.9799 78.9534 44.9074 79.5505 44.9129C80.2465 44.8933 80.9409 44.9905 81.6049 45.2004C82.0951 45.3581 82.5473 45.6157 82.9328 45.9571C83.2636 46.2559 83.5224 46.6259 83.6895 47.0392C83.8515 47.4511 83.9596 47.8821 84.0111 48.3217L81.7827 48.6055C81.7265 48.0923 81.489 47.6161 81.113 47.2624C80.6715 46.9539 80.1366 46.8081 79.5996 46.85C79.2675 46.8424 78.9357 46.8767 78.6122 46.9521C78.3903 47.0054 78.1791 47.0962 77.9879 47.2208C77.844 47.3136 77.7287 47.4445 77.655 47.5991C77.592 47.7435 77.5598 47.8994 77.5604 48.0569C77.5468 48.231 77.5715 48.4059 77.633 48.5694C77.6945 48.7328 77.7911 48.8808 77.916 49.0027C78.2722 49.2652 78.6884 49.4343 79.1267 49.4946L80.6741 49.7935C81.8974 50.0457 82.7928 50.4392 83.3604 50.9739C83.6587 51.2835 83.889 51.6522 84.0363 52.0562C84.1835 52.4602 84.2446 52.8906 84.2154 53.3196C84.2194 53.7891 84.1253 54.2543 83.9392 54.6854C83.751 55.1068 83.4688 55.4795 83.1144 55.7751C82.7137 56.109 82.2489 56.3575 81.7486 56.5053C81.1225 56.6902 80.4718 56.7782 79.8191 56.7663C78.283 56.7663 77.1064 56.4359 76.2892 55.7751C75.4719 55.1142 75.0318 54.1217 74.9688 52.7975L77.3372 52.8164Z" fill="#444444"/>
</g>
<defs>
<clipPath id="clip0_1_1595">
<rect width="277" height="101.341" fill="white"/>
</clipPath>
</defs>
</svg>
