<svg width="556" height="34" viewBox="0 0 556 34" fill="none" xmlns="http://www.w3.org/2000/svg">
<path d="M0 1.66489H10.2009C12.1224 1.61124 14.0406 1.85863 15.8857 2.39808C17.1834 2.78148 18.3758 3.45763 19.371 4.37448C20.1962 5.178 20.8 6.18084 21.1243 7.286C21.4574 8.432 21.6221 9.62035 21.6131 10.8138C21.618 12.0747 21.4463 13.3301 21.103 14.5435C20.7733 15.7116 20.1559 16.7784 19.3072 17.6462C18.3206 18.619 17.1196 19.3469 15.8007 19.7714C13.9605 20.337 12.0404 20.599 10.1159 20.5471H2.69898V33.3725H0.0425045L0 1.66489ZM10.1371 18.1775C11.6062 18.2157 13.0732 18.044 14.4937 17.6675C15.4813 17.4089 16.3923 16.9169 17.1502 16.233C17.799 15.6268 18.2631 14.8496 18.489 13.9909C18.7352 13.0079 18.8531 11.9971 18.8397 10.9838C18.8632 9.95599 18.7269 8.93081 18.4359 7.9448C18.1848 7.1178 17.7017 6.38022 17.0439 5.81962C16.2689 5.1906 15.3602 4.74717 14.3875 4.52326C12.9918 4.21931 11.5652 4.08021 10.1371 4.10883H2.69898V18.1775H10.1371Z" fill="black"/>
<path d="M37.6133 1.66138H57.59V4.06284H40.3654V15.7513H56.708V18.2803H40.3654V30.8826H58.3444L57.7281 33.369H37.6133V1.66138Z" fill="black"/>
<path d="M85.3309 4.19571H74.3438V1.66675H99.0702V4.1532H88.1043V33.3638H85.3309V4.19571Z" fill="black"/>
<path d="M115.07 1.66138H135.036V4.06284H117.822V15.7513H134.197V18.2803H117.854V30.8826H135.823L135.206 33.369H115.07V1.66138Z" fill="black"/>
<path d="M151.824 1.654H161.823C163.722 1.60234 165.616 1.85708 167.434 2.40843C168.713 2.80839 169.894 3.47471 170.898 4.36359C171.708 5.11201 172.305 6.06156 172.63 7.11572C172.941 8.14966 173.098 9.22373 173.097 10.3035C173.15 12.1132 172.678 13.8995 171.737 15.4464C170.675 16.9937 169.121 18.1359 167.327 18.6873L174.16 33.3829H170.972L164.597 19.3142L163.045 19.463C162.514 19.5161 161.983 19.5374 161.356 19.5374H154.491V33.351H151.824V1.654ZM162.121 17.1041C163.461 17.1348 164.798 16.9774 166.095 16.6365C167.028 16.3963 167.888 15.9332 168.603 15.287C169.223 14.7108 169.675 13.976 169.909 13.1618C170.178 12.2441 170.307 11.2914 170.292 10.3354C170.306 9.41272 170.17 8.49392 169.888 7.61511C169.623 6.83933 169.14 6.15667 168.496 5.64934C167.705 5.06068 166.795 4.65099 165.829 4.44861C164.432 4.15353 163.006 4.0216 161.579 4.05546H154.491V17.1041H162.121Z" fill="black"/>
<path d="M218.539 1.68358H229.282C231.32 1.65543 233.347 1.97894 235.275 2.6399C236.984 3.23324 238.528 4.2238 239.78 5.53014C241.067 6.92376 242.035 8.5808 242.617 10.3862C243.328 12.6252 243.665 14.9657 243.616 17.3142C243.664 19.7093 243.305 22.0951 242.554 24.3699C241.923 26.2526 240.873 27.9675 239.483 29.3853C238.117 30.7354 236.465 31.7597 234.648 32.3818C232.596 33.0773 230.439 33.4151 228.272 33.3806H218.55L218.539 1.68358ZM228.464 30.9792C232.714 30.9792 235.813 29.8068 237.761 27.462C239.709 25.1172 240.701 21.77 240.737 17.4205C240.737 13.1702 239.812 9.87615 237.963 7.53845C236.114 5.20075 233.22 4.06376 229.282 4.12752H221.312V31.0216L228.464 30.9792Z" fill="black"/>
<path d="M259.621 1.67529H279.587V4.07675H262.373V15.7652H278.716V18.2942H262.373V30.8965H280.352L279.736 33.3829H259.621V1.67529Z" fill="black"/>
<path d="M299.008 24.2952C299.145 25.3116 299.487 26.2896 300.013 27.1699C300.539 28.0503 301.238 28.8147 302.068 29.4169C303.641 30.4724 305.979 31.0001 309.081 31.0001C310.426 31.0337 311.767 30.8544 313.055 30.4688C313.985 30.1826 314.841 29.6967 315.563 29.0449C316.18 28.4616 316.637 27.7299 316.891 26.9198C317.167 26.1055 317.304 25.2505 317.295 24.3908C317.298 23.6752 317.216 22.9619 317.051 22.2656C316.887 21.5945 316.567 20.9718 316.116 20.4486C315.568 19.8306 314.894 19.3377 314.139 19.0035C313.068 18.5218 311.934 18.1927 310.771 18.0259L306.818 17.3565C305.424 17.1146 304.052 16.7592 302.716 16.2939C301.618 15.9344 300.59 15.388 299.677 14.6788C298.846 14.0156 298.195 13.153 297.786 12.171C297.328 10.9971 297.107 9.74373 297.138 8.48384C297.107 7.16811 297.422 5.86731 298.052 4.71167C298.654 3.65477 299.49 2.74971 300.496 2.06583C301.592 1.34101 302.808 0.815769 304.087 0.514427C305.521 0.168022 306.991 -0.00322251 308.465 0.00440506C310.147 -0.0347642 311.824 0.187481 313.438 0.663205C314.633 1.02602 315.747 1.61392 316.721 2.39523C317.539 3.06509 318.217 3.88805 318.719 4.81793C319.161 5.69178 319.516 6.60631 319.782 7.54876L317.295 8.26071C317.022 7.40642 316.666 6.58078 316.233 5.79549C315.847 5.1097 315.322 4.51241 314.692 4.04223C313.942 3.49809 313.094 3.10474 312.195 2.88401C310.991 2.59813 309.755 2.46603 308.518 2.49086C307.147 2.45869 305.778 2.61238 304.448 2.94776C303.487 3.19754 302.584 3.63444 301.792 4.23349C301.141 4.7458 300.635 5.41993 300.326 6.18865C300.026 6.95722 299.874 7.77573 299.879 8.60074C299.864 9.38132 299.972 10.1594 300.198 10.9065C300.398 11.5534 300.764 12.1362 301.261 12.5961C301.847 13.1192 302.529 13.5235 303.269 13.7862C304.304 14.1638 305.371 14.4483 306.457 14.6362L310.93 15.4332C312.347 15.6756 313.735 16.0601 315.074 16.5808C316.144 16.9951 317.127 17.6039 317.975 18.3765C318.738 19.097 319.324 19.9844 319.686 20.9693C320.073 22.1118 320.259 23.3123 320.239 24.5183C320.242 25.6994 320 26.8683 319.527 27.9505C319.043 29.0393 318.316 30.0026 317.401 30.7663C316.372 31.6196 315.189 32.2688 313.916 32.679C312.339 33.1749 310.692 33.4117 309.039 33.3803C307.435 33.394 305.835 33.2301 304.268 32.8915C302.894 32.6064 301.583 32.0735 300.4 31.3189C299.296 30.5883 298.369 29.6187 297.69 28.4818C296.931 27.1833 296.474 25.7307 296.352 24.2314L299.008 24.2952Z" fill="black"/>
<path d="M336.24 1.68604H338.992V33.383H336.24V1.68604Z" fill="black"/>
<path d="M369.691 16.963H381.316V29.1721C380.54 29.9214 379.668 30.5645 378.723 31.0848C377.775 31.6105 376.779 32.0446 375.748 32.3811C374.731 32.7223 373.685 32.9748 372.624 33.1356C371.594 33.299 370.553 33.3807 369.511 33.38C367.442 33.4201 365.385 33.0593 363.454 32.3174C361.704 31.6242 360.14 30.5328 358.885 29.1296C357.565 27.6216 356.58 25.8506 355.995 23.9336C355.292 21.6418 354.955 19.2535 354.996 16.8567C354.952 14.4097 355.311 11.9722 356.058 9.64174C356.682 7.71502 357.686 5.93346 359.012 4.40318C360.241 3.02264 361.762 1.93359 363.465 1.21542C365.223 0.491919 367.11 0.130519 369.011 0.152829C372.327 0.152829 374.909 0.921416 376.758 2.45863C378.682 4.12299 380.029 6.35535 380.604 8.83416L378.065 9.40797C377.791 8.44545 377.413 7.51555 376.938 6.63463C376.493 5.80658 375.899 5.06802 375.185 4.4563C374.434 3.80142 373.565 3.29645 372.624 2.96868C371.459 2.60569 370.242 2.43345 369.022 2.45863C367.342 2.4239 365.678 2.78806 364.166 3.52122C362.771 4.21523 361.562 5.23149 360.638 6.48585C359.655 7.84978 358.934 9.38481 358.513 11.0125C357.993 12.8912 357.735 14.8329 357.748 16.7823C357.726 18.7183 357.966 20.6483 358.46 22.5203C358.887 24.1459 359.627 25.6726 360.638 27.0151C361.608 28.2817 362.869 29.2952 364.315 29.9691C365.94 30.7024 367.707 31.0653 369.489 31.0317C371.168 31.0317 372.838 30.7992 374.452 30.341C375.991 29.909 377.433 29.1878 378.702 28.2158V19.3857H369.649L369.691 16.963Z" fill="black"/>
<path d="M397.316 1.61157H400.292L418.09 29.0476V1.61157H420.661V33.3086H417.729L399.888 5.86193V33.383H397.316V1.61157Z" fill="black"/>
<path d="M491.546 22.419C491.363 23.9235 490.954 25.392 490.335 26.7756C489.739 28.1086 488.879 29.307 487.807 30.2986C486.735 31.2902 485.473 32.0545 484.098 32.5454C480.576 33.7346 476.75 33.6557 473.281 32.3223C471.59 31.6158 470.087 30.5242 468.892 29.1345C467.606 27.6151 466.641 25.8512 466.055 23.9491C465.348 21.6398 465.007 19.234 465.046 16.8191C464.996 14.3718 465.355 11.9333 466.108 9.60416C466.747 7.67977 467.758 5.8998 469.083 4.3656C470.299 2.99859 471.796 1.91106 473.472 1.17784C475.152 0.464676 476.96 0.103053 478.785 0.115247C480.508 0.0551217 482.228 0.303422 483.864 0.848436C485.168 1.31823 486.367 2.04038 487.392 2.97361C488.356 3.88466 489.145 4.9652 489.719 6.16138C490.331 7.45472 490.808 8.80783 491.143 10.1992L488.561 10.773C488.27 9.56805 487.864 8.39381 487.349 7.26648C486.898 6.28116 486.263 5.39052 485.479 4.64189C484.689 3.91665 483.76 3.35986 482.748 3.00549C481.505 2.59475 480.2 2.40066 478.891 2.43168C477.273 2.39889 475.671 2.76376 474.226 3.49427C472.86 4.20442 471.675 5.21867 470.762 6.4589C469.773 7.82664 469.036 9.35941 468.584 10.9855C468.067 12.8465 467.813 14.7708 467.83 16.7023C467.809 18.6395 468.056 20.5703 468.563 22.4402C468.995 24.0542 469.715 25.5769 470.688 26.935C471.596 28.185 472.791 29.1982 474.173 29.889C475.666 30.6123 477.307 30.9762 478.965 30.9516C480.434 30.9862 481.897 30.7669 483.29 30.3034C484.376 29.928 485.363 29.3144 486.18 28.5076C486.945 27.7224 487.548 26.7945 487.955 25.7768C488.394 24.6805 488.714 23.5407 488.911 22.3765L491.546 22.419Z" fill="black"/>
<path d="M521.883 33.3798C519.931 33.3877 517.995 33.0272 516.177 32.3172C514.442 31.6382 512.886 30.5694 511.629 29.1932C510.286 27.6842 509.266 25.9158 508.633 23.9972C507.185 19.3034 507.185 14.2822 508.633 9.58847C509.27 7.65413 510.297 5.87111 511.651 4.34988C512.916 2.96891 514.469 1.88099 516.198 1.16211C518.005 0.436493 519.937 0.0753649 521.883 0.0995256C523.828 0.0906901 525.758 0.451272 527.568 1.16211C529.295 1.86387 530.837 2.95477 532.074 4.34988C533.394 5.85962 534.405 7.61431 535.049 9.51408C535.803 11.8282 536.163 14.253 536.111 16.6866C536.157 19.1476 535.798 21.5995 535.049 23.944C534.426 25.8707 533.421 27.6523 532.095 29.1826C530.854 30.5726 529.313 31.6626 527.589 32.3704C525.772 33.0776 523.833 33.4206 521.883 33.3798ZM521.883 30.989C523.587 31.0215 525.275 30.6578 526.814 29.9264C528.215 29.2437 529.438 28.243 530.384 27.0043C531.387 25.6529 532.126 24.1244 532.562 22.4989C533.068 20.6179 533.314 18.6767 533.296 16.7291C533.314 14.78 533.061 12.8379 532.541 10.9592C532.093 9.33416 531.347 7.80646 530.342 6.45382C529.397 5.20625 528.17 4.20103 526.761 3.52106C525.24 2.79184 523.57 2.42798 521.883 2.45847C520.145 2.42182 518.422 2.78539 516.847 3.52106C515.435 4.19214 514.209 5.19912 513.276 6.45382C512.288 7.80655 511.566 9.33575 511.151 10.9592C510.644 12.84 510.398 14.7813 510.418 16.7291C510.398 18.6755 510.637 20.6158 511.13 22.4989C511.535 24.1258 512.257 25.6568 513.255 27.0043C514.202 28.2507 515.434 29.2526 516.847 29.9264C518.422 30.6621 520.145 31.0256 521.883 30.989Z" fill="black"/>
<path d="M552.158 29.2603H555.441V33.3831H552.115L552.158 29.2603Z" fill="black"/>
</svg>
