<svg width="21" height="21" viewBox="0 0 21 21" fill="none" xmlns="http://www.w3.org/2000/svg">
<path d="M9.49155 2.12908C9.70929 1.45894 10.6574 1.45894 10.8751 2.12908L12.3063 6.5339C12.4037 6.8336 12.683 7.03651 12.9981 7.03651H17.6296C18.3342 7.03651 18.6272 7.93818 18.0571 8.35235L14.3102 11.0747C14.0552 11.2599 13.9486 11.5882 14.0459 11.8879L15.4772 16.2927C15.6949 16.9629 14.9279 17.5201 14.3578 17.106L10.6109 14.3836C10.3559 14.1984 10.0107 14.1984 9.75579 14.3836L6.00882 17.106C5.43876 17.5201 4.67176 16.9629 4.8895 16.2927L6.32071 11.8879C6.41809 11.5882 6.31141 11.2599 6.05647 11.0747L2.30951 8.35235C1.73945 7.93818 2.03242 7.03651 2.73706 7.03651H7.36856C7.68368 7.03651 7.96296 6.8336 8.06034 6.5339L9.49155 2.12908Z" fill="#3E66DF"/>
</svg>
