<svg width="37" height="37" viewBox="0 0 37 37" fill="none" xmlns="http://www.w3.org/2000/svg">
<path opacity="0.25" fill-rule="evenodd" clip-rule="evenodd" d="M18.25 35.75C27.915 35.75 35.75 27.915 35.75 18.25C35.75 8.58502 27.915 0.75 18.25 0.75C8.58502 0.75 0.75 8.58502 0.75 18.25C0.75 27.915 8.58502 35.75 18.25 35.75Z" stroke="white" stroke-width="1.5"/>
<path d="M23.9702 15.0147C23.889 14.9229 23.7581 14.8998 23.6507 14.9564C23.5839 14.9916 23.4583 15.0378 23.3092 15.0834C23.4973 14.8262 23.6485 14.5382 23.7153 14.2793C23.7442 14.1677 23.702 14.0501 23.6101 13.9836C23.5182 13.9177 23.3958 13.9177 23.3039 13.9836C23.1591 14.0875 22.4602 14.3997 22.0183 14.5008C21.0196 13.6011 19.8574 13.5077 18.6492 14.2331C17.6671 14.8229 17.4534 16.0221 17.4951 16.7531C15.2471 16.5305 13.8498 15.3093 13.0632 14.2985C13.0082 14.2276 12.9195 14.1903 12.8361 14.1958C12.7485 14.2024 12.6694 14.2524 12.6245 14.3299C12.2526 14.9757 12.1495 15.6896 12.3274 16.3947C12.4247 16.7795 12.5946 17.1186 12.7918 17.3934C12.6972 17.3456 12.6058 17.2857 12.5198 17.2142C12.4407 17.1472 12.3301 17.1345 12.2366 17.179C12.1436 17.2247 12.0843 17.3214 12.0843 17.4275C12.0843 18.6382 12.8206 19.4462 13.5083 19.8683C13.3972 19.8545 13.2812 19.8292 13.1642 19.7924C13.0638 19.7611 12.9548 19.7924 12.8853 19.8738C12.8158 19.9546 12.7993 20.07 12.8426 20.1684C13.2289 21.0472 13.9609 21.6517 14.8666 21.871C14.0758 22.3486 13.0173 22.5828 12.048 22.4679C11.9224 22.4498 11.8027 22.5317 11.7632 22.6559C11.7236 22.7801 11.7755 22.9164 11.8861 22.9801C13.3566 23.8293 14.686 24.1327 15.8349 24.1327C17.5068 24.1327 18.7972 23.4907 19.5827 22.9538C21.7003 21.5083 23.0201 18.913 22.8363 16.591C23.1756 16.3332 23.6833 15.8572 23.998 15.3455C24.0632 15.2422 24.0514 15.1059 23.9702 15.0147Z" fill="white"/>
</svg>
